<svg width="33" height="33" viewBox="0 0 33 33" fill="none" xmlns="http://www.w3.org/2000/svg">
<g clip-path="url(#clip0_1039_174)">
<path d="M10.3814 29.9061C22.8312 29.9061 29.6426 19.589 29.6426 10.6449C29.6426 10.3548 29.6362 10.0584 29.6233 9.76832C30.9483 8.81009 32.0918 7.62318 33 6.26336C31.7659 6.8124 30.4557 7.17098 29.1141 7.32684C30.5267 6.48008 31.5845 5.14985 32.0912 3.58276C30.7622 4.37035 29.3089 4.92592 27.7935 5.22567C26.7724 4.14073 25.4223 3.42236 23.952 3.18165C22.4818 2.94093 20.9731 3.19127 19.6594 3.89396C18.3456 4.59665 17.3 5.71255 16.684 7.06913C16.0681 8.42572 15.9162 9.94743 16.2518 11.399C13.5609 11.264 10.9284 10.5649 8.52496 9.34721C6.12152 8.12951 4.00081 6.42031 2.30032 4.33042C1.43603 5.82054 1.17156 7.58384 1.56065 9.26195C1.94974 10.9401 2.9632 12.4071 4.39504 13.3648C3.3201 13.3307 2.2687 13.0413 1.32772 12.5205V12.6043C1.32676 14.168 1.86737 15.6839 2.85766 16.8941C3.84795 18.1044 5.2268 18.9343 6.75983 19.2429C5.76406 19.5154 4.71896 19.5551 3.70539 19.3589C4.13798 20.7038 4.97965 21.8801 6.11292 22.7235C7.24619 23.567 8.61452 24.0356 10.027 24.064C7.62907 25.9476 4.66697 26.9693 1.61776 26.9644C1.077 26.9636 0.536783 26.9304 -1.55053e-05 26.8652C3.09766 28.8525 6.70109 29.908 10.3814 29.9061Z" fill="black"/>
</g>
<defs>
<clipPath id="clip0_1039_174">
<rect width="32.4752" height="32.4752" fill="white" transform="scale(1.01616)"/>
</clipPath>
</defs>
</svg>
