<svg width="13" height="10" viewBox="0 0 13 10" fill="none" xmlns="http://www.w3.org/2000/svg">
<path d="M6.47468 9.81801C4.86439 9.81801 3.25603 9.82571 1.64574 9.81609C0.552291 9.81031 0.0123141 9.26754 0.00652862 8.17045C-0.00311383 6.00898 -0.00118534 3.84752 0.00652862 1.68413C0.0103856 0.556245 0.560006 0.00769889 1.69781 0.00577417C4.89332 -0.00192472 8.0869 -0.00192472 11.2824 0.00577417C12.4569 0.00769889 12.991 0.552394 12.9949 1.7361C13.0007 3.87447 13.0026 6.01091 12.9949 8.14928C12.991 9.28294 12.4511 9.81031 11.3036 9.81609C9.69333 9.82379 8.08497 9.81609 6.47468 9.81609V9.81801ZM2.92433 6.87896H10.0482V2.92943H2.92433V6.87896Z" fill="black"/>
</svg>
