<svg width="83" height="72" viewBox="0 0 83 72" fill="none" xmlns="http://www.w3.org/2000/svg">
<mask id="path-1-outside-1_645_464" maskUnits="userSpaceOnUse" x="-0.499995" y="-0.499995" width="83.9991" height="71.9993" fill="black">
<rect fill="white" x="-0.499995" y="-0.499995" width="83.9991" height="71.9993"/>
<path d="M82.5 7.32158V63.6777C82.4572 63.7796 82.393 63.8746 82.3716 63.981C81.5479 68.0323 78.7195 70.4721 74.802 70.497C73.3878 70.5061 71.9736 70.497 70.5572 70.497C49.8189 70.497 29.0805 70.4993 8.34003 70.497C3.76788 70.497 0.509392 67.1654 0.505113 62.4465C0.496555 44.4781 0.496555 26.5143 0.522229 8.55055C0.522229 7.63391 0.671996 6.68106 0.943714 5.81196C1.9878 2.47133 4.77559 0.499995 8.34431 0.499995C30.4434 0.499995 52.5446 0.499995 74.6437 0.499995C74.8576 0.499995 75.0716 0.499995 75.2834 0.509048C78.2338 0.669742 80.3883 2.16352 81.7169 4.93606C82.0721 5.67842 82.2432 6.52037 82.4978 7.31705L82.5 7.32158ZM15.1416 67.0613C15.1416 63.6913 15.1416 60.4118 15.1416 57.1322C15.1416 54.5589 15.1244 51.9832 15.148 49.4099C15.1715 46.8953 16.6628 45.3405 19.0162 45.3337C20.7514 45.3291 22.4865 45.3314 24.2195 45.3337C26.7891 45.3359 28.2247 46.8569 28.2268 49.5909C28.2311 55.0794 28.2268 60.5657 28.2268 66.0542C28.2268 66.3823 28.2268 66.7105 28.2268 67.0568H33.0215C33.0215 66.706 33.0215 66.4027 33.0215 66.0994C33.0215 63.2137 33.0172 60.328 33.0258 57.4446C33.0258 57.0236 33.0536 56.5958 33.1178 56.1817C33.3382 54.749 34.1811 53.7667 35.3044 52.9949C33.9329 49.5004 32.5829 46.0602 31.2329 42.6222C29.9984 39.4785 30.4284 37.4121 32.7348 35.0628C35.6103 32.1341 38.3168 29.0583 40.1012 25.2084C40.3814 24.6041 40.8607 24.2805 41.5154 24.2805C42.2022 24.2805 42.6579 24.6313 42.9874 25.2537C43.5372 26.2858 43.9994 27.4061 44.7075 28.3001C46.6417 30.7422 48.6378 33.1368 50.7003 35.4589C52.397 37.3691 52.9212 39.6369 51.9926 42.079C51.5155 43.3352 51.0148 44.5845 50.527 45.8361C49.5963 48.233 48.6678 50.6298 47.7264 53.0493C49.4722 54.1492 50.0328 55.7924 49.9922 57.8158C49.9344 60.586 49.9772 63.3586 49.9772 66.1311V67.0364H54.4637C54.4637 66.6607 54.4637 66.3529 54.4637 66.0428C54.4637 61.9689 54.421 57.895 54.498 53.8233C54.5151 52.9768 54.7804 51.9629 55.281 51.3405C55.8887 50.5845 56.0192 49.8648 55.9914 48.9753C55.9379 47.1896 56.676 45.8927 58.1737 45.053C58.3876 44.9331 58.5952 44.5709 58.6059 44.3129C58.6529 43.1835 58.6166 42.0519 58.6294 40.9202C58.6422 39.7976 59.2584 39.0779 60.1912 39.0598C61.1519 39.0417 61.8087 39.7841 61.8258 40.9406C61.8429 42.0428 61.8515 43.1473 61.8194 44.2495C61.8066 44.709 61.9371 44.9466 62.3436 45.1413C63.3727 45.6347 64.0766 46.4947 64.3119 47.6626C64.4596 48.3982 64.3847 49.1813 64.4532 49.9395C64.4788 50.2224 64.5537 50.5777 64.7334 50.752C65.6727 51.6619 66.0064 52.7822 66 54.0972C65.9786 58.1145 65.9936 62.1296 65.9936 66.147C65.9936 66.448 65.9936 66.7467 65.9936 67.1066C68.9526 67.1066 71.8024 67.1111 74.6544 67.1066C77.562 67.1021 79.295 65.2756 79.295 62.2111C79.2971 49.5389 79.295 36.8667 79.295 24.1922C79.295 23.8934 79.295 23.597 79.295 23.3005H3.70583C3.70583 23.6445 3.70583 23.9478 3.70583 24.251C3.70583 36.8667 3.70583 49.4823 3.70583 62.1002C3.70583 62.3831 3.69941 62.666 3.71867 62.9489C3.85346 64.9949 5.39177 66.9233 7.28524 67.0274C9.86122 67.17 12.4479 67.0636 15.1416 67.0636V67.0613ZM3.71653 19.7946H79.2843C79.2843 15.827 79.2843 11.9229 79.2822 8.02093C79.2822 7.88061 79.2543 7.74029 79.2287 7.60222C78.7965 5.26876 77.1105 3.89494 74.6501 3.89494C52.5489 3.89494 30.4498 3.89494 8.34858 3.89494C8.13463 3.89494 7.92068 3.89494 7.70887 3.90626C5.61856 4.00811 3.78285 5.80064 3.73792 8.0232C3.6609 11.9229 3.71653 15.8271 3.71653 19.7969V19.7946ZM39.9 52.4472C39.9 49.7064 39.8936 46.9949 39.9043 44.2858C39.9086 43.1202 40.5547 42.3982 41.5325 42.4163C42.4739 42.4321 43.0901 43.1405 43.0986 44.2677C43.1115 46.3024 43.1029 48.3393 43.1029 50.374C43.1029 51.0734 43.1029 51.775 43.1029 52.5943C43.702 52.3952 44.3353 52.9089 44.6755 52.0195C46.1153 48.2533 47.5916 44.5008 49.0465 40.7414C49.468 39.6528 49.254 38.7022 48.4496 37.8897C47.7735 37.2062 47.0739 36.5453 46.4577 35.8052C44.7696 33.7773 43.1222 31.7131 41.4384 29.64C41.4298 29.6513 41.3335 29.7418 41.2629 29.8527C39.3973 32.7701 37.1465 35.3299 34.7331 37.7403C33.6741 38.7973 33.5115 39.5872 34.0656 41.0017C35.4456 44.5211 36.8641 48.0225 38.1884 51.5645C38.5308 52.4789 38.9822 52.7437 39.9022 52.4517L39.9 52.4472ZM46.7786 67.0772V66.2443C46.7786 63.3337 46.7786 60.4253 46.7786 57.5147C46.7786 56.2496 46.5047 55.9463 45.3323 55.944C42.7734 55.9372 40.2146 55.9372 37.6557 55.944C36.5153 55.9463 36.2265 56.2541 36.2244 57.4446C36.2201 60.4118 36.2222 63.3767 36.2244 66.3439C36.2244 66.586 36.2543 66.8259 36.2714 67.0794H46.7765L46.7786 67.0772ZM25.024 67.0659C25.024 66.0677 25.024 65.167 25.024 64.2639C25.024 59.4023 25.024 54.5385 25.024 49.6769C25.024 49.1768 25.0646 48.706 24.3586 48.715C22.5721 48.7399 20.7835 48.7037 18.9991 48.749C18.7787 48.7535 18.4107 49.0726 18.3808 49.2854C18.2973 49.9123 18.3508 50.5596 18.3508 51.2545C19.1082 51.2545 19.7458 51.2454 20.3834 51.2545C21.4938 51.2726 22.2127 51.9267 22.2255 52.9157C22.2405 53.9365 21.4981 54.6245 20.3491 54.6426C19.7137 54.6517 19.0783 54.6426 18.4129 54.6426V56.7362C19.1745 56.7362 19.8656 56.7113 20.5567 56.743C21.5387 56.786 22.2169 57.4921 22.2255 58.4291C22.2341 59.3955 21.5259 60.0994 20.4989 60.1243C19.8143 60.1402 19.1275 60.1266 18.4107 60.1266V62.2586C19.1146 62.2586 19.7501 62.2473 20.3876 62.2609C21.5088 62.2858 22.2169 62.9353 22.2276 63.9267C22.2405 64.9474 21.5066 65.6241 20.347 65.6468C19.7137 65.6581 19.0783 65.6468 18.4043 65.6468V67.0568H25.024V67.0659ZM62.7908 67.0613C62.7908 62.6026 62.7865 58.2503 62.7972 53.898C62.7972 53.3774 62.5426 53.3005 62.1382 53.3027C60.9101 53.3163 59.682 53.3457 58.4561 53.2914C57.795 53.262 57.6516 53.5223 57.6559 54.1719C57.6794 58.2435 57.6666 62.3175 57.6709 66.3891C57.6709 66.6064 57.703 66.8237 57.7222 67.0613H62.7908ZM61.3252 49.8716C61.2118 49.2831 61.2653 48.4932 60.9743 48.3054C60.5828 48.0519 59.804 48.07 59.421 48.3393C59.1407 48.5362 59.2306 49.3239 59.1514 49.8716H61.3252Z"/>
</mask>
<path d="M82.5 7.32158V63.6777C82.4572 63.7796 82.393 63.8746 82.3716 63.981C81.5479 68.0323 78.7195 70.4721 74.802 70.497C73.3878 70.5061 71.9736 70.497 70.5572 70.497C49.8189 70.497 29.0805 70.4993 8.34003 70.497C3.76788 70.497 0.509392 67.1654 0.505113 62.4465C0.496555 44.4781 0.496555 26.5143 0.522229 8.55055C0.522229 7.63391 0.671996 6.68106 0.943714 5.81196C1.9878 2.47133 4.77559 0.499995 8.34431 0.499995C30.4434 0.499995 52.5446 0.499995 74.6437 0.499995C74.8576 0.499995 75.0716 0.499995 75.2834 0.509048C78.2338 0.669742 80.3883 2.16352 81.7169 4.93606C82.0721 5.67842 82.2432 6.52037 82.4978 7.31705L82.5 7.32158ZM15.1416 67.0613C15.1416 63.6913 15.1416 60.4118 15.1416 57.1322C15.1416 54.5589 15.1244 51.9832 15.148 49.4099C15.1715 46.8953 16.6628 45.3405 19.0162 45.3337C20.7514 45.3291 22.4865 45.3314 24.2195 45.3337C26.7891 45.3359 28.2247 46.8569 28.2268 49.5909C28.2311 55.0794 28.2268 60.5657 28.2268 66.0542C28.2268 66.3823 28.2268 66.7105 28.2268 67.0568H33.0215C33.0215 66.706 33.0215 66.4027 33.0215 66.0994C33.0215 63.2137 33.0172 60.328 33.0258 57.4446C33.0258 57.0236 33.0536 56.5958 33.1178 56.1817C33.3382 54.749 34.1811 53.7667 35.3044 52.9949C33.9329 49.5004 32.5829 46.0602 31.2329 42.6222C29.9984 39.4785 30.4284 37.4121 32.7348 35.0628C35.6103 32.1341 38.3168 29.0583 40.1012 25.2084C40.3814 24.6041 40.8607 24.2805 41.5154 24.2805C42.2022 24.2805 42.6579 24.6313 42.9874 25.2537C43.5372 26.2858 43.9994 27.4061 44.7075 28.3001C46.6417 30.7422 48.6378 33.1368 50.7003 35.4589C52.397 37.3691 52.9212 39.6369 51.9926 42.079C51.5155 43.3352 51.0148 44.5845 50.527 45.8361C49.5963 48.233 48.6678 50.6298 47.7264 53.0493C49.4722 54.1492 50.0328 55.7924 49.9922 57.8158C49.9344 60.586 49.9772 63.3586 49.9772 66.1311V67.0364H54.4637C54.4637 66.6607 54.4637 66.3529 54.4637 66.0428C54.4637 61.9689 54.421 57.895 54.498 53.8233C54.5151 52.9768 54.7804 51.9629 55.281 51.3405C55.8887 50.5845 56.0192 49.8648 55.9914 48.9753C55.9379 47.1896 56.676 45.8927 58.1737 45.053C58.3876 44.9331 58.5952 44.5709 58.6059 44.3129C58.6529 43.1835 58.6166 42.0519 58.6294 40.9202C58.6422 39.7976 59.2584 39.0779 60.1912 39.0598C61.1519 39.0417 61.8087 39.7841 61.8258 40.9406C61.8429 42.0428 61.8515 43.1473 61.8194 44.2495C61.8066 44.709 61.9371 44.9466 62.3436 45.1413C63.3727 45.6347 64.0766 46.4947 64.3119 47.6626C64.4596 48.3982 64.3847 49.1813 64.4532 49.9395C64.4788 50.2224 64.5537 50.5777 64.7334 50.752C65.6727 51.6619 66.0064 52.7822 66 54.0972C65.9786 58.1145 65.9936 62.1296 65.9936 66.147C65.9936 66.448 65.9936 66.7467 65.9936 67.1066C68.9526 67.1066 71.8024 67.1111 74.6544 67.1066C77.562 67.1021 79.295 65.2756 79.295 62.2111C79.2971 49.5389 79.295 36.8667 79.295 24.1922C79.295 23.8934 79.295 23.597 79.295 23.3005H3.70583C3.70583 23.6445 3.70583 23.9478 3.70583 24.251C3.70583 36.8667 3.70583 49.4823 3.70583 62.1002C3.70583 62.3831 3.69941 62.666 3.71867 62.9489C3.85346 64.9949 5.39177 66.9233 7.28524 67.0274C9.86122 67.17 12.4479 67.0636 15.1416 67.0636V67.0613ZM3.71653 19.7946H79.2843C79.2843 15.827 79.2843 11.9229 79.2822 8.02093C79.2822 7.88061 79.2543 7.74029 79.2287 7.60222C78.7965 5.26876 77.1105 3.89494 74.6501 3.89494C52.5489 3.89494 30.4498 3.89494 8.34858 3.89494C8.13463 3.89494 7.92068 3.89494 7.70887 3.90626C5.61856 4.00811 3.78285 5.80064 3.73792 8.0232C3.6609 11.9229 3.71653 15.8271 3.71653 19.7969V19.7946ZM39.9 52.4472C39.9 49.7064 39.8936 46.9949 39.9043 44.2858C39.9086 43.1202 40.5547 42.3982 41.5325 42.4163C42.4739 42.4321 43.0901 43.1405 43.0986 44.2677C43.1115 46.3024 43.1029 48.3393 43.1029 50.374C43.1029 51.0734 43.1029 51.775 43.1029 52.5943C43.702 52.3952 44.3353 52.9089 44.6755 52.0195C46.1153 48.2533 47.5916 44.5008 49.0465 40.7414C49.468 39.6528 49.254 38.7022 48.4496 37.8897C47.7735 37.2062 47.0739 36.5453 46.4577 35.8052C44.7696 33.7773 43.1222 31.7131 41.4384 29.64C41.4298 29.6513 41.3335 29.7418 41.2629 29.8527C39.3973 32.7701 37.1465 35.3299 34.7331 37.7403C33.6741 38.7973 33.5115 39.5872 34.0656 41.0017C35.4456 44.5211 36.8641 48.0225 38.1884 51.5645C38.5308 52.4789 38.9822 52.7437 39.9022 52.4517L39.9 52.4472ZM46.7786 67.0772V66.2443C46.7786 63.3337 46.7786 60.4253 46.7786 57.5147C46.7786 56.2496 46.5047 55.9463 45.3323 55.944C42.7734 55.9372 40.2146 55.9372 37.6557 55.944C36.5153 55.9463 36.2265 56.2541 36.2244 57.4446C36.2201 60.4118 36.2222 63.3767 36.2244 66.3439C36.2244 66.586 36.2543 66.8259 36.2714 67.0794H46.7765L46.7786 67.0772ZM25.024 67.0659C25.024 66.0677 25.024 65.167 25.024 64.2639C25.024 59.4023 25.024 54.5385 25.024 49.6769C25.024 49.1768 25.0646 48.706 24.3586 48.715C22.5721 48.7399 20.7835 48.7037 18.9991 48.749C18.7787 48.7535 18.4107 49.0726 18.3808 49.2854C18.2973 49.9123 18.3508 50.5596 18.3508 51.2545C19.1082 51.2545 19.7458 51.2454 20.3834 51.2545C21.4938 51.2726 22.2127 51.9267 22.2255 52.9157C22.2405 53.9365 21.4981 54.6245 20.3491 54.6426C19.7137 54.6517 19.0783 54.6426 18.4129 54.6426V56.7362C19.1745 56.7362 19.8656 56.7113 20.5567 56.743C21.5387 56.786 22.2169 57.4921 22.2255 58.4291C22.2341 59.3955 21.5259 60.0994 20.4989 60.1243C19.8143 60.1402 19.1275 60.1266 18.4107 60.1266V62.2586C19.1146 62.2586 19.7501 62.2473 20.3876 62.2609C21.5088 62.2858 22.2169 62.9353 22.2276 63.9267C22.2405 64.9474 21.5066 65.6241 20.347 65.6468C19.7137 65.6581 19.0783 65.6468 18.4043 65.6468V67.0568H25.024V67.0659ZM62.7908 67.0613C62.7908 62.6026 62.7865 58.2503 62.7972 53.898C62.7972 53.3774 62.5426 53.3005 62.1382 53.3027C60.9101 53.3163 59.682 53.3457 58.4561 53.2914C57.795 53.262 57.6516 53.5223 57.6559 54.1719C57.6794 58.2435 57.6666 62.3175 57.6709 66.3891C57.6709 66.6064 57.703 66.8237 57.7222 67.0613H62.7908ZM61.3252 49.8716C61.2118 49.2831 61.2653 48.4932 60.9743 48.3054C60.5828 48.0519 59.804 48.07 59.421 48.3393C59.1407 48.5362 59.2306 49.3239 59.1514 49.8716H61.3252Z" fill="#FD6F00"/>
<path d="M82.5 7.32158V63.6777C82.4572 63.7796 82.393 63.8746 82.3716 63.981C81.5479 68.0323 78.7195 70.4721 74.802 70.497C73.3878 70.5061 71.9736 70.497 70.5572 70.497C49.8189 70.497 29.0805 70.4993 8.34003 70.497C3.76788 70.497 0.509392 67.1654 0.505113 62.4465C0.496555 44.4781 0.496555 26.5143 0.522229 8.55055C0.522229 7.63391 0.671996 6.68106 0.943714 5.81196C1.9878 2.47133 4.77559 0.499995 8.34431 0.499995C30.4434 0.499995 52.5446 0.499995 74.6437 0.499995C74.8576 0.499995 75.0716 0.499995 75.2834 0.509048C78.2338 0.669742 80.3883 2.16352 81.7169 4.93606C82.0721 5.67842 82.2432 6.52037 82.4978 7.31705L82.5 7.32158ZM15.1416 67.0613C15.1416 63.6913 15.1416 60.4118 15.1416 57.1322C15.1416 54.5589 15.1244 51.9832 15.148 49.4099C15.1715 46.8953 16.6628 45.3405 19.0162 45.3337C20.7514 45.3291 22.4865 45.3314 24.2195 45.3337C26.7891 45.3359 28.2247 46.8569 28.2268 49.5909C28.2311 55.0794 28.2268 60.5657 28.2268 66.0542C28.2268 66.3823 28.2268 66.7105 28.2268 67.0568H33.0215C33.0215 66.706 33.0215 66.4027 33.0215 66.0994C33.0215 63.2137 33.0172 60.328 33.0258 57.4446C33.0258 57.0236 33.0536 56.5958 33.1178 56.1817C33.3382 54.749 34.1811 53.7667 35.3044 52.9949C33.9329 49.5004 32.5829 46.0602 31.2329 42.6222C29.9984 39.4785 30.4284 37.4121 32.7348 35.0628C35.6103 32.1341 38.3168 29.0583 40.1012 25.2084C40.3814 24.6041 40.8607 24.2805 41.5154 24.2805C42.2022 24.2805 42.6579 24.6313 42.9874 25.2537C43.5372 26.2858 43.9994 27.4061 44.7075 28.3001C46.6417 30.7422 48.6378 33.1368 50.7003 35.4589C52.397 37.3691 52.9212 39.6369 51.9926 42.079C51.5155 43.3352 51.0148 44.5845 50.527 45.8361C49.5963 48.233 48.6678 50.6298 47.7264 53.0493C49.4722 54.1492 50.0328 55.7924 49.9922 57.8158C49.9344 60.586 49.9772 63.3586 49.9772 66.1311V67.0364H54.4637C54.4637 66.6607 54.4637 66.3529 54.4637 66.0428C54.4637 61.9689 54.421 57.895 54.498 53.8233C54.5151 52.9768 54.7804 51.9629 55.281 51.3405C55.8887 50.5845 56.0192 49.8648 55.9914 48.9753C55.9379 47.1896 56.676 45.8927 58.1737 45.053C58.3876 44.9331 58.5952 44.5709 58.6059 44.3129C58.6529 43.1835 58.6166 42.0519 58.6294 40.9202C58.6422 39.7976 59.2584 39.0779 60.1912 39.0598C61.1519 39.0417 61.8087 39.7841 61.8258 40.9406C61.8429 42.0428 61.8515 43.1473 61.8194 44.2495C61.8066 44.709 61.9371 44.9466 62.3436 45.1413C63.3727 45.6347 64.0766 46.4947 64.3119 47.6626C64.4596 48.3982 64.3847 49.1813 64.4532 49.9395C64.4788 50.2224 64.5537 50.5777 64.7334 50.752C65.6727 51.6619 66.0064 52.7822 66 54.0972C65.9786 58.1145 65.9936 62.1296 65.9936 66.147C65.9936 66.448 65.9936 66.7467 65.9936 67.1066C68.9526 67.1066 71.8024 67.1111 74.6544 67.1066C77.562 67.1021 79.295 65.2756 79.295 62.2111C79.2971 49.5389 79.295 36.8667 79.295 24.1922C79.295 23.8934 79.295 23.597 79.295 23.3005H3.70583C3.70583 23.6445 3.70583 23.9478 3.70583 24.251C3.70583 36.8667 3.70583 49.4823 3.70583 62.1002C3.70583 62.3831 3.69941 62.666 3.71867 62.9489C3.85346 64.9949 5.39177 66.9233 7.28524 67.0274C9.86122 67.17 12.4479 67.0636 15.1416 67.0636V67.0613ZM3.71653 19.7946H79.2843C79.2843 15.827 79.2843 11.9229 79.2822 8.02093C79.2822 7.88061 79.2543 7.74029 79.2287 7.60222C78.7965 5.26876 77.1105 3.89494 74.6501 3.89494C52.5489 3.89494 30.4498 3.89494 8.34858 3.89494C8.13463 3.89494 7.92068 3.89494 7.70887 3.90626C5.61856 4.00811 3.78285 5.80064 3.73792 8.0232C3.6609 11.9229 3.71653 15.8271 3.71653 19.7969V19.7946ZM39.9 52.4472C39.9 49.7064 39.8936 46.9949 39.9043 44.2858C39.9086 43.1202 40.5547 42.3982 41.5325 42.4163C42.4739 42.4321 43.0901 43.1405 43.0986 44.2677C43.1115 46.3024 43.1029 48.3393 43.1029 50.374C43.1029 51.0734 43.1029 51.775 43.1029 52.5943C43.702 52.3952 44.3353 52.9089 44.6755 52.0195C46.1153 48.2533 47.5916 44.5008 49.0465 40.7414C49.468 39.6528 49.254 38.7022 48.4496 37.8897C47.7735 37.2062 47.0739 36.5453 46.4577 35.8052C44.7696 33.7773 43.1222 31.7131 41.4384 29.64C41.4298 29.6513 41.3335 29.7418 41.2629 29.8527C39.3973 32.7701 37.1465 35.3299 34.7331 37.7403C33.6741 38.7973 33.5115 39.5872 34.0656 41.0017C35.4456 44.5211 36.8641 48.0225 38.1884 51.5645C38.5308 52.4789 38.9822 52.7437 39.9022 52.4517L39.9 52.4472ZM46.7786 67.0772V66.2443C46.7786 63.3337 46.7786 60.4253 46.7786 57.5147C46.7786 56.2496 46.5047 55.9463 45.3323 55.944C42.7734 55.9372 40.2146 55.9372 37.6557 55.944C36.5153 55.9463 36.2265 56.2541 36.2244 57.4446C36.2201 60.4118 36.2222 63.3767 36.2244 66.3439C36.2244 66.586 36.2543 66.8259 36.2714 67.0794H46.7765L46.7786 67.0772ZM25.024 67.0659C25.024 66.0677 25.024 65.167 25.024 64.2639C25.024 59.4023 25.024 54.5385 25.024 49.6769C25.024 49.1768 25.0646 48.706 24.3586 48.715C22.5721 48.7399 20.7835 48.7037 18.9991 48.749C18.7787 48.7535 18.4107 49.0726 18.3808 49.2854C18.2973 49.9123 18.3508 50.5596 18.3508 51.2545C19.1082 51.2545 19.7458 51.2454 20.3834 51.2545C21.4938 51.2726 22.2127 51.9267 22.2255 52.9157C22.2405 53.9365 21.4981 54.6245 20.3491 54.6426C19.7137 54.6517 19.0783 54.6426 18.4129 54.6426V56.7362C19.1745 56.7362 19.8656 56.7113 20.5567 56.743C21.5387 56.786 22.2169 57.4921 22.2255 58.4291C22.2341 59.3955 21.5259 60.0994 20.4989 60.1243C19.8143 60.1402 19.1275 60.1266 18.4107 60.1266V62.2586C19.1146 62.2586 19.7501 62.2473 20.3876 62.2609C21.5088 62.2858 22.2169 62.9353 22.2276 63.9267C22.2405 64.9474 21.5066 65.6241 20.347 65.6468C19.7137 65.6581 19.0783 65.6468 18.4043 65.6468V67.0568H25.024V67.0659ZM62.7908 67.0613C62.7908 62.6026 62.7865 58.2503 62.7972 53.898C62.7972 53.3774 62.5426 53.3005 62.1382 53.3027C60.9101 53.3163 59.682 53.3457 58.4561 53.2914C57.795 53.262 57.6516 53.5223 57.6559 54.1719C57.6794 58.2435 57.6666 62.3175 57.6709 66.3891C57.6709 66.6064 57.703 66.8237 57.7222 67.0613H62.7908ZM61.3252 49.8716C61.2118 49.2831 61.2653 48.4932 60.9743 48.3054C60.5828 48.0519 59.804 48.07 59.421 48.3393C59.1407 48.5362 59.2306 49.3239 59.1514 49.8716H61.3252Z" stroke="#FD6F00" mask="url(#path-1-outside-1_645_464)"/>
</svg>
