<svg width="13" height="10" viewBox="0 0 13 10" fill="none" xmlns="http://www.w3.org/2000/svg">
<path d="M6.49484 0.00256645C8.10523 0.00256645 9.71368 -0.00320765 11.3241 0.0044917C12.4619 0.0102662 12.9904 0.543447 12.9942 1.69065C13.002 3.82914 13.002 5.96571 12.9942 8.10421C12.9904 9.27836 12.4523 9.81346 11.2604 9.81539C8.0898 9.82116 4.91917 9.82116 1.74662 9.81539C0.552812 9.81346 0.00894537 9.28028 0.00508816 8.11191C-0.00262626 5.97341 -0.000697655 3.83684 0.00508816 1.69835C0.00894537 0.520349 0.535455 0.00641612 1.7389 0.00256645C3.32422 -0.00320806 4.90953 0.00256645 6.49484 0.00256645ZM10.0685 6.89734V2.93409H2.94428V6.89734H10.0685Z" fill="black"/>
</svg>
