<svg width="17" height="3" viewBox="0 0 17 3" fill="none" xmlns="http://www.w3.org/2000/svg">
<path d="M8.533 0.00282283C10.8843 0.00282283 13.2357 -0.00632294 15.5852 0.00830993C16.4227 0.0137973 17 0.593623 17 1.36368C17 2.09532 16.4429 2.66966 15.6567 2.73734C15.4752 2.75197 15.292 2.74466 15.1087 2.74466C10.7029 2.74466 6.29895 2.74466 1.89317 2.74466C1.75571 2.74466 1.61827 2.74831 1.48265 2.74466C0.604788 2.7099 0.00183269 2.14837 0 1.36917C0 0.577161 0.591958 0.0119682 1.47898 0.00830993C3.83032 -0.00266472 6.17983 0.00464993 8.53117 0.00647904L8.533 0.00282283Z" fill="black"/>
</svg>
